<svg version="1.1" viewBox="0.0 0.0 1000.0 1000.0" fill="none" stroke="none" stroke-linecap="square" stroke-miterlimit="10" xmlns:xlink="http://www.w3.org/1999/xlink" xmlns="http://www.w3.org/2000/svg"><clipPath id="p.0"><path d="m0 0l1000.0 0l0 1000.0l-1000.0 0l0 -1000.0z" clip-rule="nonzero"/></clipPath><g clip-path="url(#p.0)"><path fill="#000000" fill-opacity="0.0" d="m0 0l1000.0 0l0 1000.0l-1000.0 0z" fill-rule="evenodd"/><path fill="#000000" fill-opacity="0.0" d="m499.99158 69.63658l0 0c149.24738 0 270.2362 192.67268 270.2362 430.34644l0 0c0 237.67377 -120.98883 430.34644 -270.2362 430.34644l0 0c-149.24734 0 -270.2362 -192.67267 -270.2362 -430.34644l0 0c0 -237.67377 120.98886 -430.34644 270.2362 -430.34644z" fill-rule="evenodd"/><path stroke="#000000" stroke-width="3.0" stroke-linejoin="round" stroke-linecap="butt" d="m499.99158 69.63658l0 0c149.24738 0 270.2362 192.67268 270.2362 430.34644l0 0c0 237.67377 -120.98883 430.34644 -270.2362 430.34644l0 0c-149.24734 0 -270.2362 -192.67267 -270.2362 -430.34644l0 0c0 -237.67377 120.98886 -430.34644 270.2362 -430.34644z" fill-rule="evenodd"/><path fill="#000000" fill-opacity="0.0" d="m195.68504 804.3119l0 0c-105.534225 -105.53424 -54.840164 -327.33307 113.22835 -495.40158l0 0c168.06851 -168.06851 389.86737 -218.76257 495.40155 -113.22835l0 0c105.53424 105.534225 54.84021 327.33307 -113.22833 495.4016l0 0c-168.06848 168.06848 -389.86734 218.76257 -495.40155 113.22833z" fill-rule="evenodd"/><path stroke="#000000" stroke-width="3.0" stroke-linejoin="round" stroke-linecap="butt" d="m195.68504 804.3119l0 0c-105.534225 -105.53424 -54.840164 -327.33307 113.22835 -495.40158l0 0c168.06851 -168.06851 389.86737 -218.76257 495.40155 -113.22835l0 0c105.53424 105.534225 54.84021 327.33307 -113.22833 495.4016l0 0c-168.06848 168.06848 -389.86734 218.76257 -495.40155 113.22833z" fill-rule="evenodd"/><path fill="#000000" fill-opacity="0.0" d="m930.3464 499.9911l0 0c0 -149.24734 -192.67267 -270.23624 -430.34644 -270.23624l0 0c-237.6738 0 -430.34647 120.98889 -430.34647 270.23624l0 0c0 149.24731 192.67267 270.2362 430.34647 270.2362l0 0c237.67377 0 430.34644 -120.98889 430.34644 -270.2362z" fill-rule="evenodd"/><path stroke="#000000" stroke-width="3.0" stroke-linejoin="round" stroke-linecap="butt" d="m930.3464 499.9911l0 0c0 -149.24734 -192.67267 -270.23624 -430.34644 -270.23624l0 0c-237.6738 0 -430.34647 120.98889 -430.34647 270.23624l0 0c0 149.24731 192.67267 270.2362 430.34647 270.2362l0 0c237.67377 0 430.34644 -120.98889 430.34644 -270.2362z" fill-rule="evenodd"/><path fill="#000000" fill-opacity="0.0" d="m195.68504 195.68747l0 0c-105.534225 105.53421 -54.840164 327.33304 113.22835 495.40158l0 0c168.06851 168.06848 389.86737 218.76257 495.40155 113.22833l0 0c105.53424 -105.53424 54.84021 -327.33307 -113.22833 -495.40158l0 0c-168.06848 -168.0685 -389.86734 -218.76256 -495.40155 -113.22833z" fill-rule="evenodd"/><path stroke="#000000" stroke-width="3.0" stroke-linejoin="round" stroke-linecap="butt" d="m195.68504 195.68747l0 0c-105.534225 105.53421 -54.840164 327.33304 113.22835 495.40158l0 0c168.06851 168.06848 389.86737 218.76257 495.40155 113.22833l0 0c105.53424 -105.53424 54.84021 -327.33307 -113.22833 -495.40158l0 0c-168.06848 -168.0685 -389.86734 -218.76256 -495.40155 -113.22833z" fill-rule="evenodd"/><path fill="#000000" d="m310.3651 499.98898l0 0c0 -108.40436 87.87909 -196.28345 196.28345 -196.28345l0 0c52.057617 0 101.98309 20.67978 138.7934 57.49008c36.810303 36.810303 57.49005 86.73575 57.49005 138.79337l0 0c0 108.40439 -87.87909 196.28348 -196.28345 196.28348l0 0c-108.40436 0 -196.28345 -87.87909 -196.28345 -196.28348z" fill-rule="evenodd"/><path stroke="#000000" stroke-width="3.0" stroke-linejoin="round" stroke-linecap="butt" d="m310.3651 499.98898l0 0c0 -108.40436 87.87909 -196.28345 196.28345 -196.28345l0 0c52.057617 0 101.98309 20.67978 138.7934 57.49008c36.810303 36.810303 57.49005 86.73575 57.49005 138.79337l0 0c0 108.40439 -87.87909 196.28348 -196.28345 196.28348l0 0c-108.40436 0 -196.28345 -87.87909 -196.28345 -196.28348z" fill-rule="evenodd"/><path fill="#000000" d="m187.91537 213.74211l0 0c0 -11.558853 9.370285 -20.929138 20.929138 -20.929138l0 0c5.5507507 0 10.874161 2.2050323 14.799133 6.130005c3.9249725 3.9249725 6.1299896 9.248383 6.1299896 14.799133l0 0c0 11.558838 -9.370285 20.929123 -20.929123 20.929123l0 0c-11.558853 0 -20.929138 -9.370285 -20.929138 -20.929123z" fill-rule="evenodd"/><path stroke="#000000" stroke-width="3.0" stroke-linejoin="round" stroke-linecap="butt" d="m187.91537 213.74211l0 0c0 -11.558853 9.370285 -20.929138 20.929138 -20.929138l0 0c5.5507507 0 10.874161 2.2050323 14.799133 6.130005c3.9249725 3.9249725 6.1299896 9.248383 6.1299896 14.799133l0 0c0 11.558838 -9.370285 20.929123 -20.929123 20.929123l0 0c-11.558853 0 -20.929138 -9.370285 -20.929138 -20.929123z" fill-rule="evenodd"/><path fill="#ffffff" d="m69.63771 512.7624l0 0c0 -11.558838 9.370293 -20.929138 20.92913 -20.929138l0 0c5.5507507 0 10.874161 2.2050476 14.799133 6.130005c3.9249725 3.9249878 6.130005 9.248383 6.130005 14.799133l0 0c0 11.558838 -9.370293 20.929138 -20.929138 20.929138l0 0c-11.558838 0 -20.92913 -9.3703 -20.92913 -20.929138z" fill-rule="evenodd"/><path stroke="#000000" stroke-width="3.0" stroke-linejoin="round" stroke-linecap="butt" d="m69.63771 512.7624l0 0c0 -11.558838 9.370293 -20.929138 20.92913 -20.929138l0 0c5.5507507 0 10.874161 2.2050476 14.799133 6.130005c3.9249725 3.9249878 6.130005 9.248383 6.130005 14.799133l0 0c0 11.558838 -9.370293 20.929138 -20.929138 20.929138l0 0c-11.558838 0 -20.92913 -9.3703 -20.92913 -20.929138z" fill-rule="evenodd"/><path fill="#000000" fill-opacity="0.0" d="m759.1472 796.7053l0 0c0 -11.558838 9.3703 -20.929138 20.929138 -20.929138l0 0c5.55072 0 10.8741455 2.205017 14.799133 6.130005c3.9249268 3.9249878 6.130005 9.248352 6.130005 14.799133l0 0c0 11.558838 -9.3703 20.929138 -20.929138 20.929138l0 0c-11.558838 0 -20.929138 -9.3703 -20.929138 -20.929138z" fill-rule="evenodd"/><path stroke="#000000" stroke-width="3.0" stroke-linejoin="round" stroke-linecap="butt" d="m759.1472 796.7053l0 0c0 -11.558838 9.3703 -20.929138 20.929138 -20.929138l0 0c5.55072 0 10.8741455 2.205017 14.799133 6.130005c3.9249268 3.9249878 6.130005 9.248352 6.130005 14.799133l0 0c0 11.558838 -9.3703 20.929138 -20.929138 20.929138l0 0c-11.558838 0 -20.929138 -9.3703 -20.929138 -20.929138z" fill-rule="evenodd"/><path fill="#000000" d="m770.22894 213.74211l0 0c0 -11.558853 9.370239 -20.929138 20.929077 -20.929138l0 0c5.5507812 0 10.874207 2.2050323 14.799133 6.130005c3.9249878 3.9249725 6.130005 9.248383 6.130005 14.799133l0 0c0 11.558838 -9.370239 20.929123 -20.929138 20.929123l0 0c-11.558838 0 -20.929077 -9.370285 -20.929077 -20.929123z" fill-rule="evenodd"/><path stroke="#000000" stroke-width="3.0" stroke-linejoin="round" stroke-linecap="butt" d="m770.22894 213.74211l0 0c0 -11.558853 9.370239 -20.929138 20.929077 -20.929138l0 0c5.5507812 0 10.874207 2.2050323 14.799133 6.130005c3.9249878 3.9249725 6.130005 9.248383 6.130005 14.799133l0 0c0 11.558838 -9.370239 20.929123 -20.929138 20.929123l0 0c-11.558838 0 -20.929077 -9.370285 -20.929077 -20.929123z" fill-rule="evenodd"/><path fill="#ffffff" d="m479.06125 90.574615l0 0c0 -11.558838 9.37027 -20.92913 20.929108 -20.92913l0 0c5.5507507 0 10.874176 2.2050247 14.799133 6.1299973c3.9249878 3.9249802 6.130005 9.248383 6.130005 14.799133l0 0c0 11.5588455 -9.37027 20.929138 -20.929138 20.929138l0 0c-11.558838 0 -20.929108 -9.370293 -20.929108 -20.929138z" fill-rule="evenodd"/><path stroke="#000000" stroke-width="3.0" stroke-linejoin="round" stroke-linecap="butt" d="m479.06125 90.574615l0 0c0 -11.558838 9.37027 -20.92913 20.929108 -20.92913l0 0c5.5507507 0 10.874176 2.2050247 14.799133 6.1299973c3.9249878 3.9249802 6.130005 9.248383 6.130005 14.799133l0 0c0 11.5588455 -9.37027 20.929138 -20.929138 20.929138l0 0c-11.558838 0 -20.929108 -9.370293 -20.929108 -20.929138z" fill-rule="evenodd"/><path fill="#000000" d="m479.07214 909.42737l0 0c0 -11.558838 9.3703 -20.929138 20.929138 -20.929138l0 0c5.5507507 0 10.8741455 2.205017 14.799133 6.130005c3.9249878 3.9249878 6.130005 9.248352 6.130005 14.799133l0 0c0 11.558838 -9.3703 20.929138 -20.929138 20.929138l0 0c-11.558838 0 -20.929138 -9.3703 -20.929138 -20.929138z" fill-rule="evenodd"/><path stroke="#000000" stroke-width="3.0" stroke-linejoin="round" stroke-linecap="butt" d="m479.07214 909.42737l0 0c0 -11.558838 9.3703 -20.929138 20.929138 -20.929138l0 0c5.5507507 0 10.8741455 2.205017 14.799133 6.130005c3.9249878 3.9249878 6.130005 9.248352 6.130005 14.799133l0 0c0 11.558838 -9.3703 20.929138 -20.929138 20.929138l0 0c-11.558838 0 -20.929138 -9.3703 -20.929138 -20.929138z" fill-rule="evenodd"/><path fill="#000000" fill-opacity="0.0" d="m310.3651 409.7763l392.5669 0l0 159.02362l-392.5669 0z" fill-rule="evenodd"/><path fill="#ffffff" d="m456.52213 464.30106q-5.328125 0 -8.703125 -2.34375q-3.375 -2.34375 -3.78125 -6.6875l2.6875 0q0.296875 3.109375 2.84375 4.9375q2.5625 1.8125 6.953125 1.8125q3.640625 0 5.78125 -1.84375q2.140625 -1.859375 2.140625 -4.5625q0 -1.875 -1.140625 -3.078125q-1.140625 -1.203125 -2.84375 -1.84375q-1.703125 -0.640625 -4.640625 -1.40625q-3.515625 -0.9375 -5.6875 -1.84375q-2.171875 -0.90625 -3.703125 -2.71875q-1.515625 -1.828125 -1.515625 -4.875q0 -2.234375 1.34375 -4.140625q1.359375 -1.90625 3.765625 -3.015625q2.40625 -1.125 5.453125 -1.125q4.984375 0 8.0625 2.5q3.078125 2.484375 3.3125 6.890625l-2.640625 0q-0.171875 -3.171875 -2.46875 -5.15625q-2.28125 -2.0 -6.328125 -2.0q-3.40625 0 -5.640625 1.765625q-2.21875 1.75 -2.21875 4.28125q0 2.21875 1.25 3.609375q1.265625 1.375 3.109375 2.109375q1.859375 0.734375 4.90625 1.546875q3.34375 0.875 5.359375 1.734375q2.03125 0.84375 3.4375 2.46875q1.40625 1.609375 1.40625 4.296875q0 2.46875 -1.34375 4.46875q-1.34375 1.984375 -3.75 3.109375q-2.40625 1.109375 -5.40625 1.109375zm32.55838 0q-4.453125 0 -8.03125 -1.984375q-3.578125 -2.0 -5.609375 -5.71875q-2.015625 -3.734375 -2.015625 -8.71875q0 -4.921875 2.046875 -8.640625q2.046875 -3.734375 5.65625 -5.703125q3.609375 -1.96875 8.078125 -1.96875q4.453125 0 8.03125 1.96875q3.578125 1.96875 5.59375 5.671875q2.03125 3.6875 2.03125 8.671875q0 4.984375 -2.0625 8.71875q-2.046875 3.71875 -5.65625 5.71875q-3.609375 1.984375 -8.0625 1.984375zm0 -2.34375q3.46875 0 6.484375 -1.546875q3.015625 -1.5625 4.828125 -4.734375q1.828125 -3.171875 1.828125 -7.796875q0 -4.578125 -1.828125 -7.734375q-1.8125 -3.171875 -4.8125 -4.71875q-2.984375 -1.5625 -6.4375 -1.5625q-3.46875 0 -6.4375 1.5625q-2.953125 1.546875 -4.78125 4.71875q-1.8125 3.15625 -1.8125 7.734375q0 4.625 1.78125 7.796875q1.796875 3.171875 4.765625 4.734375q2.96875 1.546875 6.421875 1.546875zm26.458252 -41.53125l0 43.40625l-2.640625 0l0 -43.40625l2.640625 0zm11.020935 4.453125q-0.9375 0 -1.578125 -0.609375q-0.640625 -0.609375 -0.640625 -1.671875q0 -1.0 0.640625 -1.640625q0.640625 -0.640625 1.578125 -0.640625q0.9375 0 1.578125 0.640625q0.65625 0.640625 0.65625 1.640625q0 1.0625 -0.65625 1.671875q-0.640625 0.609375 -1.578125 0.609375zm1.296875 7.109375l0 31.84375l-2.640625 0l0 -31.84375l2.640625 0zm8.03656 15.890625q0 -4.921875 1.953125 -8.609375q1.96875 -3.703125 5.453125 -5.703125q3.5 -2.0 7.953125 -2.0q4.875 0 8.453125 2.4375q3.578125 2.4375 5.046875 6.3125l0 -19.890625l2.640625 0l0 43.40625l-2.640625 0l0 -8.453125q-1.40625 3.9375 -4.9375 6.4375q-3.515625 2.484375 -8.5625 2.484375q-4.453125 0 -7.953125 -2.015625q-3.484375 -2.03125 -5.453125 -5.75q-1.953125 -3.734375 -1.953125 -8.65625zm28.859375 0q0 -4.171875 -1.734375 -7.359375q-1.734375 -3.203125 -4.734375 -4.921875q-2.984375 -1.734375 -6.671875 -1.734375q-3.875 0 -6.8125 1.671875q-2.921875 1.671875 -4.578125 4.84375q-1.640625 3.15625 -1.640625 7.5q0 4.34375 1.640625 7.515625q1.65625 3.15625 4.609375 4.859375q2.96875 1.703125 6.78125 1.703125q3.6875 0 6.703125 -1.734375q3.03125 -1.734375 4.734375 -4.921875q1.703125 -3.203125 1.703125 -7.421875z" fill-rule="nonzero"/><path fill="#ffffff" d="m352.02704 502.49167q2.3125 -4.015625 6.875 -6.703125q4.5625 -2.6875 10.625 -2.6875q6.234375 0 11.296875 2.984375q5.078125 2.984375 7.984375 8.40625q2.90625 5.421875 2.90625 12.5937805q0 7.078125 -2.90625 12.625q-2.90625 5.546875 -7.984375 8.625q-5.0625 3.0625 -11.296875 3.0625q-5.96875 0 -10.546875 -2.6875q-4.5625 -2.6875 -6.953125 -6.703125l0 30.8125l-7.765625 0l0 -68.953156l7.765625 0l0 8.625zm31.75 14.5937805q0 -5.2969055 -2.140625 -9.2187805q-2.125 -3.921875 -5.75 -5.96875q-3.625 -2.046875 -7.984375 -2.046875q-4.265625 0 -7.890625 2.09375q-3.625 2.078125 -5.8125 6.046875q-2.171875 3.96875 -2.171875 9.1719055q0 5.296875 2.171875 9.265625q2.1875 3.96875 5.8125 6.0625q3.625 2.078125 7.890625 2.078125q4.359375 0 7.984375 -2.078125q3.625 -2.09375 5.75 -6.0625q2.140625 -3.96875 2.140625 -9.34375zm25.931793 -15.6250305q2.0625 -4.0 5.859375 -6.21875q3.796875 -2.21875 9.25 -2.21875l0 8.015625l-2.046875 0q-13.0625 0 -13.0625 14.1719055l0 25.421875l-7.765625 0l0 -46.765656l7.765625 0l0 7.59375zm44.468018 39.93753q-6.578125 0 -11.90625 -2.984375q-5.328125 -2.984375 -8.359375 -8.484375q-3.03125 -5.515625 -3.03125 -12.765625q0 -7.1562805 3.109375 -12.6562805q3.109375 -5.515625 8.484375 -8.453125q5.390625 -2.953125 12.046875 -2.953125q6.640625 0 12.015625 2.953125q5.390625 2.9375 8.5 8.40625q3.109375 5.453125 3.109375 12.7031555q0 7.25 -3.203125 12.765625q-3.1875 5.5 -8.65625 8.484375q-5.453125 2.984375 -12.109375 2.984375zm0 -6.828125q4.171875 0 7.84375 -1.953125q3.671875 -1.96875 5.921875 -5.890625q2.265625 -3.921875 2.265625 -9.5625q0 -5.6250305 -2.21875 -9.5469055q-2.21875 -3.9375 -5.796875 -5.84375q-3.578125 -1.921875 -7.765625 -1.921875q-4.265625 0 -7.8125 1.921875q-3.53125 1.90625 -5.671875 5.84375q-2.125 3.921875 -2.125 9.5469055q0 5.71875 2.078125 9.65625q2.09375 3.921875 5.59375 5.84375q3.5 1.90625 7.6875 1.90625zm31.31311 -17.40625q0 -7.2500305 2.890625 -12.6719055q2.90625 -5.421875 8.0625 -8.40625q5.171875 -2.984375 11.828125 -2.984375q8.6093445 0 14.2030945 4.1875q5.59375 4.171875 7.390625 11.609375l-8.375 0q-1.1875 -4.28125 -4.640625 -6.75q-3.453125 -2.46875 -8.5780945 -2.46875q-6.65625 0 -10.75 4.5625q-4.09375 4.5625 -4.09375 12.9219055q0 8.453125 4.09375 13.0625q4.09375 4.609375 10.75 4.609375q5.1249695 0 8.5312195 -2.390625q3.40625 -2.390625 4.6875 -6.828125l8.375 0q-1.890625 7.171875 -7.515625 11.484375q-5.625 4.296875 -14.0780945 4.296875q-6.65625 0 -11.828125 -2.984375q-5.15625 -2.984375 -8.0625 -8.4375q-2.890625 -5.46875 -2.890625 -12.8125zm97.35666 -1.703125q0 2.21875 -0.25 4.6875l-37.375 0q0.421875 6.921875 4.734375 10.8125q4.3125 3.875 10.453125 3.875q5.03125 0 8.390625 -2.34375q3.375 -2.359375 4.75 -6.28125l8.359375 0q-1.875 6.75 -7.515625 10.96875q-5.625 4.21875 -13.984375 4.21875q-6.65625 0 -11.90625 -2.984375q-5.25 -2.984375 -8.234375 -8.484375q-2.984375 -5.515625 -2.984375 -12.765625q0 -7.2500305 2.890625 -12.7031555q2.90625 -5.46875 8.15625 -8.40625q5.25 -2.953125 12.078125 -2.953125q6.65625 0 11.765625 2.90625q5.125 2.90625 7.890625 7.984375q2.78125 5.0625 2.78125 11.4687805zm-8.015625 -1.625q0 -4.4375305 -1.96875 -7.6250305q-1.96875 -3.203125 -5.34375 -4.859375q-3.359375 -1.671875 -7.453125 -1.671875q-5.890625 0 -10.03125 3.75q-4.140625 3.75 -4.734375 10.4062805l29.53125 0zm34.809692 27.5625q-5.375 0 -9.640625 -1.828125q-4.265625 -1.84375 -6.75 -5.125q-2.46875 -3.28125 -2.71875 -7.546875l8.015625 0q0.34375 3.5 3.28125 5.71875q2.953125 2.21875 7.71875 2.21875q4.4375 0 7.0 -1.96875q2.5625 -1.96875 2.5625 -4.953125q0 -3.0625 -2.734375 -4.546875q-2.71875 -1.5 -8.4375 -2.953125q-5.203125 -1.375 -8.5 -2.78125q-3.28125 -1.40625 -5.625 -4.171875q-2.34375 -2.7812805 -2.34375 -7.2969055q0 -3.59375 2.125 -6.578125q2.140625 -2.984375 6.0625 -4.734375q3.921875 -1.75 8.953125 -1.75q7.765625 0 12.546875 3.9375q4.78125 3.921875 5.125 10.75l-7.765625 0q-0.265625 -3.671875 -2.953125 -5.890625q-2.6875 -2.21875 -7.203125 -2.21875q-4.1875 0 -6.65625 1.796875q-2.46875 1.78125 -2.46875 4.6875q0 2.296875 1.484375 3.796875q1.5 1.484375 3.75 2.3906555q2.265625 0.890625 6.28125 2.0q5.03125 1.359375 8.1875 2.6875q3.15625 1.328125 5.421875 3.96875q2.265625 2.640625 2.34375 6.90625q0 3.84375 -2.140625 6.921875q-2.125 3.0625 -6.015625 4.8125q-3.875 1.75 -8.90625 1.75zm44.54126 0q-5.375 0 -9.640625 -1.828125q-4.265625 -1.84375 -6.75 -5.125q-2.46875 -3.28125 -2.71875 -7.546875l8.015625 0q0.34375 3.5 3.28125 5.71875q2.953125 2.21875 7.71875 2.21875q4.4375 0 7.0 -1.96875q2.5625 -1.96875 2.5625 -4.953125q0 -3.0625 -2.734375 -4.546875q-2.71875 -1.5 -8.4375 -2.953125q-5.203125 -1.375 -8.5 -2.78125q-3.28125 -1.40625 -5.625 -4.171875q-2.34375 -2.7812805 -2.34375 -7.2969055q0 -3.59375 2.125 -6.578125q2.140625 -2.984375 6.0625 -4.734375q3.921875 -1.75 8.953125 -1.75q7.765625 0 12.546875 3.9375q4.78125 3.921875 5.125 10.75l-7.765625 0q-0.265625 -3.671875 -2.953125 -5.890625q-2.6875 -2.21875 -7.203125 -2.21875q-4.1875 0 -6.65625 1.796875q-2.46875 1.78125 -2.46875 4.6875q0 2.296875 1.484375 3.796875q1.5 1.484375 3.75 2.3906555q2.265625 0.890625 6.28125 2.0q5.03125 1.359375 8.1875 2.6875q3.15625 1.328125 5.421875 3.96875q2.265625 2.640625 2.34375 6.90625q0 3.84375 -2.140625 6.921875q-2.125 3.0625 -6.015625 4.8125q-3.875 1.75 -8.90625 1.75z" fill-rule="nonzero"/></g></svg>