<svg version="1.1" viewBox="0.0 0.0 1000.0 1000.0" fill="none" stroke="none" stroke-linecap="square" stroke-miterlimit="10" xmlns:xlink="http://www.w3.org/1999/xlink" xmlns="http://www.w3.org/2000/svg"><clipPath id="p.0"><path d="m0 0l1000.0 0l0 1000.0l-1000.0 0l0 -1000.0z" clip-rule="nonzero"/></clipPath><g clip-path="url(#p.0)"><path fill="#000000" fill-opacity="0.0" d="m0 0l1000.0 0l0 1000.0l-1000.0 0z" fill-rule="evenodd"/><path fill="#000000" fill-opacity="0.0" d="m931.3858 528.3754l0 0c0 -13.599121 -45.4494 -26.641296 -126.349976 -36.257324c-80.90051 -9.616058 -190.62518 -15.01828 -305.03583 -15.01828l0 0c-238.2478 0 -431.38583 22.956848 -431.38583 51.275604l0 0c0 28.318726 193.13803 51.275574 431.38583 51.275574l0 0c238.2478 0 431.3858 -22.956848 431.3858 -51.275574z" fill-rule="evenodd"/><path stroke="#000000" stroke-width="16.0" stroke-linejoin="round" stroke-linecap="butt" d="m931.3858 528.3754l0 0c0 -13.599121 -45.4494 -26.641296 -126.349976 -36.257324c-80.90051 -9.616058 -190.62518 -15.01828 -305.03583 -15.01828l0 0c-238.2478 0 -431.38583 22.956848 -431.38583 51.275604l0 0c0 28.318726 193.13803 51.275574 431.38583 51.275574l0 0c238.2478 0 431.3858 -22.956848 431.3858 -51.275574z" fill-rule="evenodd"/><path fill="#ffffff" d="m151.71681 499.99948l0 0c0 -108.40436 87.879105 -196.28345 196.28346 -196.28345l0 0c52.057617 0 101.98309 20.67978 138.79337 57.49008c36.810303 36.810303 57.490112 86.73575 57.490112 138.79337l0 0c0 108.40439 -87.87912 196.28348 -196.28348 196.28348l0 0c-108.40436 0 -196.28346 -87.87909 -196.28346 -196.28348z" fill-rule="evenodd"/><path stroke="#000000" stroke-width="16.0" stroke-linejoin="round" stroke-linecap="butt" d="m151.71681 499.99948l0 0c0 -108.40436 87.879105 -196.28345 196.28346 -196.28345l0 0c52.057617 0 101.98309 20.67978 138.79337 57.49008c36.810303 36.810303 57.490112 86.73575 57.490112 138.79337l0 0c0 108.40439 -87.87912 196.28348 -196.28348 196.28348l0 0c-108.40436 0 -196.28346 -87.87909 -196.28346 -196.28348z" fill-rule="evenodd"/><path fill="#000000" fill-opacity="0.0" d="m151.71654 409.78745l392.5669 0l0 159.02359l-392.5669 0z" fill-rule="evenodd"/><path fill="#000000" d="m297.87354 464.3122q-5.328125 0 -8.703125 -2.34375q-3.375 -2.34375 -3.78125 -6.6875l2.6875 0q0.296875 3.109375 2.84375 4.9375q2.5625 1.8125 6.953125 1.8125q3.640625 0 5.78125 -1.84375q2.140625 -1.859375 2.140625 -4.5625q0 -1.875 -1.140625 -3.078125q-1.140625 -1.203125 -2.84375 -1.84375q-1.703125 -0.640625 -4.640625 -1.40625q-3.515625 -0.9375 -5.6875 -1.84375q-2.171875 -0.90625 -3.703125 -2.71875q-1.515625 -1.828125 -1.515625 -4.875q0 -2.234375 1.34375 -4.140625q1.359375 -1.90625 3.765625 -3.015625q2.40625 -1.125 5.453125 -1.125q4.984375 0 8.0625 2.5q3.078125 2.484375 3.3125 6.890625l-2.640625 0q-0.171875 -3.171875 -2.46875 -5.15625q-2.28125 -2.0 -6.328125 -2.0q-3.40625 0 -5.640625 1.765625q-2.21875 1.75 -2.21875 4.28125q0 2.21875 1.25 3.609375q1.265625 1.375 3.109375 2.109375q1.859375 0.734375 4.90625 1.546875q3.34375 0.875 5.359375 1.734375q2.03125 0.84375 3.4375 2.46875q1.40625 1.609375 1.40625 4.296875q0 2.46875 -1.34375 4.46875q-1.34375 1.984375 -3.75 3.109375q-2.40625 1.109375 -5.40625 1.109375zm32.55841 0q-4.453125 0 -8.03125 -1.984375q-3.578125 -2.0 -5.609375 -5.71875q-2.015625 -3.734375 -2.015625 -8.71875q0 -4.921875 2.046875 -8.640625q2.046875 -3.734375 5.65625 -5.703125q3.609375 -1.96875 8.078125 -1.96875q4.453125 0 8.03125 1.96875q3.578125 1.96875 5.59375 5.671875q2.03125 3.6875 2.03125 8.671875q0 4.984375 -2.0625 8.71875q-2.046875 3.71875 -5.65625 5.71875q-3.609375 1.984375 -8.0625 1.984375zm0 -2.34375q3.46875 0 6.484375 -1.546875q3.015625 -1.5625 4.828125 -4.734375q1.828125 -3.171875 1.828125 -7.796875q0 -4.578125 -1.828125 -7.734375q-1.8125 -3.171875 -4.8125 -4.71875q-2.984375 -1.5625 -6.4375 -1.5625q-3.46875 0 -6.4375 1.5625q-2.953125 1.546875 -4.78125 4.71875q-1.8125 3.15625 -1.8125 7.734375q0 4.625 1.78125 7.796875q1.796875 3.171875 4.765625 4.734375q2.96875 1.546875 6.421875 1.546875zm26.458252 -41.53125l0 43.40625l-2.640625 0l0 -43.40625l2.640625 0zm11.020935 4.453125q-0.9375 0 -1.578125 -0.609375q-0.640625 -0.609375 -0.640625 -1.671875q0 -1.0 0.640625 -1.640625q0.640625 -0.640625 1.578125 -0.640625q0.9375 0 1.578125 0.640625q0.65625 0.640625 0.65625 1.640625q0 1.0625 -0.65625 1.671875q-0.640625 0.609375 -1.578125 0.609375zm1.296875 7.109375l0 31.84375l-2.640625 0l0 -31.84375l2.640625 0zm8.03656 15.890625q0 -4.921875 1.953125 -8.609375q1.96875 -3.703125 5.453125 -5.703125q3.5 -2.0 7.953125 -2.0q4.875 0 8.453125 2.4375q3.578125 2.4375 5.046875 6.3125l0 -19.890625l2.6405945 0l0 43.40625l-2.6405945 0l0 -8.453125q-1.40625 3.9375 -4.9375 6.4375q-3.515625 2.484375 -8.5625 2.484375q-4.453125 0 -7.953125 -2.015625q-3.484375 -2.03125 -5.453125 -5.75q-1.953125 -3.734375 -1.953125 -8.65625zm28.859375 0q0 -4.171875 -1.734375 -7.359375q-1.734375 -3.203125 -4.734375 -4.921875q-2.984375 -1.734375 -6.671875 -1.734375q-3.875 0 -6.8125 1.671875q-2.921875 1.671875 -4.578125 4.84375q-1.640625 3.15625 -1.640625 7.5q0 4.34375 1.640625 7.515625q1.65625 3.15625 4.609375 4.859375q2.96875 1.703125 6.78125 1.703125q3.6875 0 6.703125 -1.734375q3.03125 -1.734375 4.734375 -4.921875q1.703125 -3.203125 1.703125 -7.421875z" fill-rule="nonzero"/><path fill="#000000" d="m193.37848 502.5028q2.3125 -4.015625 6.875 -6.703125q4.5625 -2.6875 10.625 -2.6875q6.234375 0 11.296875 2.984375q5.078125 2.984375 7.984375 8.40625q2.90625 5.421875 2.90625 12.59375q0 7.078125 -2.90625 12.625q-2.90625 5.546875 -7.984375 8.625q-5.0625 3.0625 -11.296875 3.0625q-5.96875 0 -10.546875 -2.6875q-4.5625 -2.6875 -6.953125 -6.703125l0 30.8125l-7.765625 0l0 -68.953125l7.765625 0l0 8.625zm31.75 14.59375q0 -5.296875 -2.140625 -9.21875q-2.125 -3.921875 -5.75 -5.96875q-3.625 -2.046875 -7.984375 -2.046875q-4.265625 0 -7.890625 2.09375q-3.625 2.078125 -5.8125 6.046875q-2.171875 3.96875 -2.171875 9.171875q0 5.296875 2.171875 9.265625q2.1875 3.96875 5.8125 6.0625q3.625 2.078125 7.890625 2.078125q4.359375 0 7.984375 -2.078125q3.625 -2.09375 5.75 -6.0625q2.140625 -3.96875 2.140625 -9.34375zm25.931793 -15.625q2.0625 -4.0 5.859375 -6.21875q3.796875 -2.21875 9.25 -2.21875l0 8.015625l-2.046875 0q-13.0625 0 -13.0625 14.171875l0 25.421875l-7.765625 0l0 -46.765625l7.765625 0l0 7.59375zm44.467987 39.9375q-6.578125 0 -11.90625 -2.984375q-5.328125 -2.984375 -8.359375 -8.484375q-3.03125 -5.515625 -3.03125 -12.765625q0 -7.15625 3.109375 -12.65625q3.109375 -5.515625 8.484375 -8.453125q5.390625 -2.953125 12.046875 -2.953125q6.640625 0 12.015625 2.953125q5.390625 2.9375 8.5 8.40625q3.109375 5.453125 3.109375 12.703125q0 7.25 -3.203125 12.765625q-3.1875 5.5 -8.65625 8.484375q-5.453125 2.984375 -12.109375 2.984375zm0 -6.828125q4.171875 0 7.84375 -1.953125q3.671875 -1.96875 5.921875 -5.890625q2.265625 -3.921875 2.265625 -9.5625q0 -5.625 -2.21875 -9.546875q-2.21875 -3.9375 -5.796875 -5.84375q-3.578125 -1.921875 -7.765625 -1.921875q-4.265625 0 -7.8125 1.921875q-3.53125 1.90625 -5.671875 5.84375q-2.125 3.921875 -2.125 9.546875q0 5.71875 2.078125 9.65625q2.09375 3.921875 5.59375 5.84375q3.5 1.90625 7.6875 1.90625zm31.31311 -17.40625q0 -7.25 2.890625 -12.671875q2.90625 -5.421875 8.0625 -8.40625q5.171875 -2.984375 11.828125 -2.984375q8.609375 0 14.203125 4.1875q5.59375 4.171875 7.390625 11.609375l-8.375 0q-1.1875 -4.28125 -4.640625 -6.75q-3.453125 -2.46875 -8.578125 -2.46875q-6.65625 0 -10.75 4.5625q-4.09375 4.5625 -4.09375 12.921875q0 8.453125 4.09375 13.0625q4.09375 4.609375 10.75 4.609375q5.125 0 8.53125 -2.390625q3.40625 -2.390625 4.6875 -6.828125l8.375 0q-1.890625 7.171875 -7.515625 11.484375q-5.625 4.296875 -14.078125 4.296875q-6.65625 0 -11.828125 -2.984375q-5.15625 -2.984375 -8.0625 -8.4375q-2.890625 -5.46875 -2.890625 -12.8125zm97.35666 -1.703125q0 2.21875 -0.25 4.6875l-37.375 0q0.421875 6.921875 4.734375 10.8125q4.3125 3.875 10.453125 3.875q5.03125 0 8.390625 -2.34375q3.375 -2.359375 4.75 -6.28125l8.359375 0q-1.875 6.75 -7.515625 10.96875q-5.625 4.21875 -13.984375 4.21875q-6.65625 0 -11.90625 -2.984375q-5.25 -2.984375 -8.234375 -8.484375q-2.984375 -5.515625 -2.984375 -12.765625q0 -7.25 2.890625 -12.703125q2.90625 -5.46875 8.15625 -8.40625q5.25 -2.953125 12.078125 -2.953125q6.65625 0 11.765625 2.90625q5.125 2.90625 7.890625 7.984375q2.78125 5.0625 2.78125 11.46875zm-8.015625 -1.625q0 -4.4375 -1.96875 -7.625q-1.96875 -3.203125 -5.34375 -4.859375q-3.359375 -1.671875 -7.453125 -1.671875q-5.890625 0 -10.03125 3.75q-4.140625 3.75 -4.734375 10.40625l29.53125 0zm34.809692 27.5625q-5.375 0 -9.640625 -1.828125q-4.265625 -1.84375 -6.75 -5.125q-2.46875 -3.28125 -2.71875 -7.546875l8.015625 0q0.34375 3.5 3.28125 5.71875q2.953125 2.21875 7.71875 2.21875q4.4375 0 7.0 -1.96875q2.5625 -1.96875 2.5625 -4.953125q0 -3.0625 -2.734375 -4.546875q-2.71875 -1.5 -8.4375 -2.953125q-5.203125 -1.375 -8.5 -2.78125q-3.28125 -1.40625 -5.625 -4.171875q-2.34375 -2.78125 -2.34375 -7.296875q0 -3.59375 2.125 -6.578125q2.140625 -2.984375 6.0625 -4.734375q3.921875 -1.75 8.953125 -1.75q7.765625 0 12.546875 3.9375q4.78125 3.921875 5.125 10.75l-7.765625 0q-0.265625 -3.671875 -2.953125 -5.890625q-2.6875 -2.21875 -7.203125 -2.21875q-4.1875 0 -6.65625 1.796875q-2.46875 1.78125 -2.46875 4.6875q0 2.296875 1.484375 3.796875q1.5 1.484375 3.75 2.390625q2.265625 0.890625 6.28125 2.0q5.03125 1.359375 8.1875 2.6875q3.15625 1.328125 5.421875 3.96875q2.265625 2.640625 2.34375 6.90625q0 3.84375 -2.140625 6.921875q-2.125 3.0625 -6.015625 4.8125q-3.875 1.75 -8.90625 1.75zm44.54126 0q-5.375 0 -9.640625 -1.828125q-4.265625 -1.84375 -6.75 -5.125q-2.46875 -3.28125 -2.71875 -7.546875l8.015625 0q0.34375 3.5 3.28125 5.71875q2.953125 2.21875 7.71875 2.21875q4.4375 0 7.0 -1.96875q2.5625 -1.96875 2.5625 -4.953125q0 -3.0625 -2.734375 -4.546875q-2.71875 -1.5 -8.4375 -2.953125q-5.203125 -1.375 -8.5 -2.78125q-3.28125 -1.40625 -5.625 -4.171875q-2.34375 -2.78125 -2.34375 -7.296875q0 -3.59375 2.125 -6.578125q2.140625 -2.984375 6.0625 -4.734375q3.921875 -1.75 8.953125 -1.75q7.765625 0 12.546875 3.9375q4.78125 3.921875 5.1250305 10.75l-7.7656555 0q-0.265625 -3.671875 -2.953125 -5.890625q-2.6875 -2.21875 -7.203125 -2.21875q-4.1875 0 -6.65625 1.796875q-2.46875 1.78125 -2.46875 4.6875q0 2.296875 1.484375 3.796875q1.5 1.484375 3.75 2.390625q2.265625 0.890625 6.28125 2.0q5.03125 1.359375 8.1875 2.6875q3.15625 1.328125 5.421875 3.96875q2.2656555 2.640625 2.3437805 6.90625q0 3.84375 -2.1406555 6.921875q-2.125 3.0625 -6.015625 4.8125q-3.875 1.75 -8.90625 1.75z" fill-rule="nonzero"/><path fill="#000000" fill-opacity="0.0" d="m931.3858 610.1915l0 0c0 -6.649231 -19.753967 -13.026062 -54.91632 -17.727783c-35.162292 -4.701721 -82.85266 -7.3430786 -132.57971 -7.3430786l0 0c-103.55121 0 -187.4961 11.224609 -187.4961 25.070862l0 0c0 13.846252 83.944885 25.070862 187.4961 25.070862l0 0c103.55121 0 187.49603 -11.224609 187.49603 -25.070862z" fill-rule="evenodd"/><path stroke="#000000" stroke-width="8.0" stroke-linejoin="round" stroke-linecap="butt" d="m931.3858 610.1915l0 0c0 -6.649231 -19.753967 -13.026062 -54.91632 -17.727783c-35.162292 -4.701721 -82.85266 -7.3430786 -132.57971 -7.3430786l0 0c-103.55121 0 -187.4961 11.224609 -187.4961 25.070862l0 0c0 13.846252 83.944885 25.070862 187.4961 25.070862l0 0c103.55121 0 187.49603 -11.224609 187.49603 -25.070862z" fill-rule="evenodd"/><path fill="#ffffff" d="m865.6175 591.66077l0 0c0 -10.158569 8.235107 -18.393677 18.393677 -18.393677l0 0c4.878296 0 9.556824 1.9378662 13.006287 5.38739c3.449524 3.449463 5.38739 8.127991 5.38739 13.006287l0 0c0 10.158569 -8.235107 18.393738 -18.393677 18.393738l0 0c-10.158569 0 -18.393677 -8.235168 -18.393677 -18.393738z" fill-rule="evenodd"/><path stroke="#000000" stroke-width="4.0" stroke-linejoin="round" stroke-linecap="butt" d="m865.6175 591.66077l0 0c0 -10.158569 8.235107 -18.393677 18.393677 -18.393677l0 0c4.878296 0 9.556824 1.9378662 13.006287 5.38739c3.449524 3.449463 5.38739 8.127991 5.38739 13.006287l0 0c0 10.158569 -8.235107 18.393738 -18.393677 18.393738l0 0c-10.158569 0 -18.393677 -8.235168 -18.393677 -18.393738z" fill-rule="evenodd"/><path fill="#ffffff" d="m592.5348 610.9759l0 0c0 -47.11383 38.1933 -85.30713 85.30707 -85.30713l0 0c22.624878 0 44.32306 8.987671 60.321228 24.9859c15.998169 15.998169 24.9859 37.69635 24.9859 60.321228l0 0c0 47.11377 -38.1933 85.30707 -85.30713 85.30707l0 0c-47.11377 0 -85.30707 -38.1933 -85.30707 -85.30707z" fill-rule="evenodd"/><path stroke="#000000" stroke-width="8.0" stroke-linejoin="round" stroke-linecap="butt" d="m592.5348 610.9759l0 0c0 -47.11383 38.1933 -85.30713 85.30707 -85.30713l0 0c22.624878 0 44.32306 8.987671 60.321228 24.9859c15.998169 15.998169 24.9859 37.69635 24.9859 60.321228l0 0c0 47.11377 -38.1933 85.30707 -85.30713 85.30707l0 0c-47.11377 0 -85.30707 -38.1933 -85.30707 -85.30707z" fill-rule="evenodd"/><path fill="#000000" fill-opacity="0.0" d="m927.7507 657.9861l0 0c0 -6.8709106 -34.259033 -12.440918 -76.519714 -12.440918l0 0c-42.26062 0 -76.51965 5.5700073 -76.51965 12.440918l0 0c0 6.8709717 34.259033 12.440979 76.51965 12.440979l0 0c42.26068 0 76.519714 -5.5700073 76.519714 -12.440979z" fill-rule="evenodd"/><path stroke="#000000" stroke-width="4.0" stroke-linejoin="round" stroke-linecap="butt" d="m927.7507 657.9861l0 0c0 -6.8709106 -34.259033 -12.440918 -76.519714 -12.440918l0 0c-42.26062 0 -76.51965 5.5700073 -76.51965 12.440918l0 0c0 6.8709717 34.259033 12.440979 76.51965 12.440979l0 0c42.26068 0 76.519714 -5.5700073 76.519714 -12.440979z" fill-rule="evenodd"/><path fill="#ffffff" d="m896.89264 649.6297l0 0c0 -4.9140625 3.9836426 -8.897644 8.897644 -8.897644l0 0c2.3598022 0 4.622925 0.9373779 6.291565 2.606018c1.6686401 1.6686401 2.606079 3.9318237 2.606079 6.291626l0 0c0 4.9140015 -3.9835815 8.897583 -8.897644 8.897583l0 0c-4.9140015 0 -8.897644 -3.9835815 -8.897644 -8.897583z" fill-rule="evenodd"/><path stroke="#000000" stroke-width="2.0" stroke-linejoin="round" stroke-linecap="butt" d="m896.89264 649.6297l0 0c0 -4.9140625 3.9836426 -8.897644 8.897644 -8.897644l0 0c2.3598022 0 4.622925 0.9373779 6.291565 2.606018c1.6686401 1.6686401 2.606079 3.9318237 2.606079 6.291626l0 0c0 4.9140015 -3.9835815 8.897583 -8.897644 8.897583l0 0c-4.9140015 0 -8.897644 -3.9835815 -8.897644 -8.897583z" fill-rule="evenodd"/><path fill="#ffffff" d="m795.6758 652.4004l0 0c0 -23.38733 18.959167 -42.346436 42.346436 -42.346436l0 0c11.231018 0 22.002014 4.461487 29.943481 12.402954c7.9415283 7.9415283 12.403015 18.712524 12.403015 29.943481l0 0c0 23.38733 -18.959167 42.346436 -42.346497 42.346436l0 0c-23.387268 0 -42.346436 -18.959106 -42.346436 -42.346436z" fill-rule="evenodd"/><path stroke="#000000" stroke-width="4.0" stroke-linejoin="round" stroke-linecap="butt" d="m795.6758 652.4004l0 0c0 -23.38733 18.959167 -42.346436 42.346436 -42.346436l0 0c11.231018 0 22.002014 4.461487 29.943481 12.402954c7.9415283 7.9415283 12.403015 18.712524 12.403015 29.943481l0 0c0 23.38733 -18.959167 42.346436 -42.346497 42.346436l0 0c-23.387268 0 -42.346436 -18.959106 -42.346436 -42.346436z" fill-rule="evenodd"/><path fill="#ffffff" d="m785.07367 491.99982l0 0c0 -19.50827 15.807556 -35.322845 35.30713 -35.322845l0 0c9.364014 0 18.344482 3.7214966 24.965881 10.345825c6.621338 6.624298 10.341187 15.608795 10.341187 24.97702l0 0c0 19.50824 -15.807495 35.322815 -35.307068 35.322815l0 0c-19.499573 0 -35.30713 -15.814575 -35.30713 -35.322815z" fill-rule="evenodd"/><path stroke="#000000" stroke-width="8.0" stroke-linejoin="round" stroke-linecap="butt" d="m785.07367 491.99982l0 0c0 -19.50827 15.807556 -35.322845 35.30713 -35.322845l0 0c9.364014 0 18.344482 3.7214966 24.965881 10.345825c6.621338 6.624298 10.341187 15.608795 10.341187 24.97702l0 0c0 19.50824 -15.807495 35.322815 -35.307068 35.322815l0 0c-19.499573 0 -35.30713 -15.814575 -35.30713 -35.322815z" fill-rule="evenodd"/></g></svg>